<?xml version="1.0" encoding="UTF-8"?>
<svg version="1.1" xmlns="http://www.w3.org/2000/svg" width="512" height="512">
<path  d="M0 0 C3.00385396 3.35083379 5.79642496 6.78802855 8.4921875 10.390625 C9.0605835 11.14432373 9.62897949 11.89802246 10.21459961 12.67456055 C56.77488177 74.84802702 84.09593101 150.28158934 90.3671875 227.640625 C90.45258789 228.60572998 90.53798828 229.57083496 90.62597656 230.56518555 C91.61870716 243.17980261 91.61076625 255.80619665 91.6171875 268.453125 C91.61786224 269.65037201 91.61853699 270.84761902 91.61923218 272.08114624 C91.59160396 303.04669824 88.60608838 333.13720213 83.3671875 363.640625 C83.1933252 364.65769531 83.01946289 365.67476563 82.84033203 366.72265625 C82.59259033 368.07423828 82.59259033 368.07423828 82.33984375 369.453125 C82.12920288 370.60748047 82.12920288 370.60748047 81.91430664 371.78515625 C81.3671875 373.640625 81.3671875 373.640625 79.3671875 375.640625 C76.3873305 376.2993632 73.45162714 376.8476144 70.44259644 377.33480835 C69.50635347 377.49295348 68.5701105 377.65109861 67.60549653 377.81403601 C64.4490133 378.34517049 61.29072168 378.86465644 58.13232422 379.38427734 C55.87531596 379.76161843 53.6184267 380.13967187 51.36164856 380.51838684 C45.21071964 381.54849484 39.05816244 382.56856397 32.90527868 383.58692122 C26.45461532 384.65630403 20.00548291 385.73483994 13.55618286 386.81240845 C2.70047382 388.62521721 -8.1562566 390.43181516 -19.01367188 392.234375 C-30.13767129 394.08120941 -41.26111117 395.93135526 -52.38378906 397.78613281 C-53.40660133 397.95669146 -53.40660133 397.95669146 -54.45007648 398.13069575 C-57.874246 398.70171332 -61.29840437 399.27279773 -64.72255731 399.84391475 C-88.44132169 403.79990775 -112.16126057 407.74881247 -135.88246155 411.69017029 C-136.88848632 411.85740986 -137.89451108 412.02464943 -138.93102145 412.19695687 C-140.89657415 412.52340105 -142.86222953 412.84922762 -144.82799459 413.17439055 C-149.971814 414.02628814 -155.11269133 414.89282905 -160.2508812 415.77809525 C-161.34057642 415.96420227 -162.43027164 416.15030929 -163.55298793 416.34205592 C-165.63547948 416.69804855 -167.71732152 417.05786993 -169.79836953 417.42220628 C-174.46432481 418.21617106 -178.87831905 418.86469224 -183.6328125 418.640625 C-183.00648476 413.12778102 -182.11683965 407.76393075 -180.9609375 402.33984375 C-180.62454023 400.72475583 -180.28887828 399.10951462 -179.95385742 397.49414062 C-179.7788974 396.65278564 -179.60393738 395.81143066 -179.42367554 394.94458008 C-170.38456087 351.21735924 -165.39506044 307.0712247 -165.4453125 262.390625 C-165.44591675 261.3882782 -165.446521 260.3859314 -165.44714355 259.35321045 C-165.56793822 185.05712752 -179.26738862 109.30786284 -210.6328125 41.640625 C-211.08833496 40.65271973 -211.54385742 39.66481445 -212.01318359 38.64697266 C-217.40133162 27.01579933 -222.99492973 15.61500425 -229.6328125 4.640625 C-226.81164136 3.23003943 -225.24169571 3.99793877 -222.17578125 4.6796875 C-221.01747803 4.9276709 -219.8591748 5.1756543 -218.66577148 5.43115234 C-216.76226929 5.84421631 -216.76226929 5.84421631 -214.8203125 6.265625 C-205.77570278 8.20993678 -196.78252267 9.83502052 -187.5859375 10.875 C-186.75069046 10.97255585 -185.91544342 11.07011169 -185.05488586 11.17062378 C-180.94271411 11.64740382 -176.83197826 12.08379952 -172.7097168 12.46337891 C-161.97484863 13.58407408 -161.97484863 13.58407408 -158.71044922 16.15405273 C-157.35514331 18.25349624 -156.52578561 20.30690216 -155.6328125 22.640625 C-154.55381717 24.62686069 -153.4531169 26.60139396 -152.3359375 28.56640625 C-151.18220143 30.69385351 -150.03120661 32.82278941 -148.8828125 34.953125 C-148.29371094 36.03658203 -147.70460938 37.12003906 -147.09765625 38.23632812 C-142.76048951 46.25759397 -142.76048951 46.25759397 -141.6328125 49.640625 C-145.35714632 48.4280512 -149.01084056 47.13202521 -152.6328125 45.640625 C-152.6328125 46.630625 -152.6328125 47.620625 -152.6328125 48.640625 C-134.65014766 58.47345818 -134.65014766 58.47345818 -114.6328125 58.640625 C-109.90720409 56.89039966 -107.36066113 54.87349356 -104.6328125 50.640625 C-102.94186034 46.93214193 -101.6328125 43.74548259 -101.6328125 39.640625 C-103.1178125 39.145625 -103.1178125 39.145625 -104.6328125 38.640625 C-104.81457031 39.56294922 -104.81457031 39.56294922 -105 40.50390625 C-105.16757813 41.31214844 -105.33515625 42.12039062 -105.5078125 42.953125 C-105.67023438 43.75363281 -105.83265625 44.55414063 -106 45.37890625 C-106.6328125 47.640625 -106.6328125 47.640625 -108.6328125 50.640625 C-112.26291841 49.4305897 -112.74420719 48.40176285 -114.8125 45.265625 C-115.41191406 44.36199219 -116.01132813 43.45835937 -116.62890625 42.52734375 C-117.24894531 41.57472656 -117.86898437 40.62210938 -118.5078125 39.640625 C-119.12011719 38.71894531 -119.73242188 37.79726562 -120.36328125 36.84765625 C-130.6328125 21.25644071 -130.6328125 21.25644071 -130.6328125 17.640625 C-128.66380981 17.61875122 -128.66380981 17.61875122 -126.6550293 17.59643555 C-92.29833211 17.28076095 -92.29833211 17.28076095 -58.13330078 13.98828125 C-54.30816746 13.45645252 -50.47276588 13.05022003 -46.6328125 12.640625 C-45.64510534 15.82554107 -44.66922091 19.01396496 -43.6953125 22.203125 C-43.41751953 23.09837891 -43.13972656 23.99363281 -42.85351562 24.91601562 C-41.35878402 29.83242199 -40.18669342 34.52949602 -39.6328125 39.640625 C-45.31783785 37.99495977 -50.39962886 35.35029716 -55.6328125 32.640625 C-55.62998658 34.54278425 -55.62998658 34.54278425 -54.6328125 36.640625 C-52.45452893 38.03197371 -50.45993785 39.12932116 -48.1328125 40.203125 C-47.49279297 40.50613525 -46.85277344 40.80914551 -46.19335938 41.12133789 C-44.34896714 41.98095309 -42.49114793 42.81158312 -40.6328125 43.640625 C-39.8284375 44.00929687 -39.0240625 44.37796875 -38.1953125 44.7578125 C-30.90903465 47.65576392 -21.65492352 48.29678836 -14.37890625 45.30078125 C-9.88660713 42.58495319 -6.45049944 38.6392641 -4.6328125 33.640625 C-4.24532037 31.31567223 -3.90298411 28.98211232 -3.6328125 26.640625 C-4.6228125 26.970625 -5.6128125 27.300625 -6.6328125 27.640625 C-7.85801514 30.64909918 -7.85801514 30.64909918 -8.6328125 33.640625 C-12.77031738 31.57187256 -13.77609377 24.96911341 -15.3203125 20.828125 C-15.74892578 19.72146484 -16.17753906 18.61480469 -16.61914062 17.47460938 C-17.01939453 16.40919922 -17.41964844 15.34378906 -17.83203125 14.24609375 C-18.20158936 13.26793701 -18.57114746 12.28978027 -18.9519043 11.28198242 C-19.66608464 8.51155679 -19.84141728 7.22171924 -18.6328125 4.640625 C-16.01291123 3.2289887 -13.64796743 2.16295341 -10.8828125 1.140625 C-10.16609375 0.83898437 -9.449375 0.53734375 -8.7109375 0.2265625 C-3.43248609 -1.77226285 -3.43248609 -1.77226285 0 0 Z " fill="#f6f7fb" transform="translate(349.6328125,93.359375)"/>
<path d="M0 0 C3.13413862 2.87941317 5.10349058 5.65074074 7.06640625 9.41796875 C7.90981567 11.03203613 7.90981567 11.03203613 8.77026367 12.67871094 C9.65742065 14.41556152 9.65742065 14.41556152 10.5625 16.1875 C10.86991119 16.78679321 11.17732239 17.38608643 11.49404907 18.00354004 C41.93223517 77.45412093 57.65468167 142.64591862 63 209 C63.09571289 210.12390137 63.19142578 211.24780273 63.29003906 212.40576172 C64.32669207 226.28910928 64.24721687 240.21016331 64.25 254.125 C64.25029457 254.80093327 64.25058914 255.47686653 64.25089264 256.17328262 C64.2524887 278.89805929 63.72565322 301.42040073 61 324 C60.90054077 324.82467773 60.80108154 325.64935547 60.6986084 326.49902344 C57.37370626 353.692751 53.76412666 381.66101691 46 408 C45.34 408 44.68 408 44 408 C42.18314835 405.49293044 40.48594376 402.97629646 38.8125 400.375 C37.73433708 398.72703682 36.65484751 397.07994104 35.57421875 395.43359375 C34.99849121 394.55429199 34.42276367 393.67499023 33.82958984 392.76904297 C30.64884726 387.9550608 27.38481673 383.19813749 24.125 378.4375 C22.31229785 375.78902088 20.50054455 373.14088172 18.71191406 370.47607422 C17.58656027 368.84838765 16.41163762 367.25369544 15.18652344 365.69970703 C12.33841358 361.95612517 10.54265902 359.2945497 10.9453125 354.49609375 C11.26592794 352.65839398 11.62216725 350.82679422 12 349 C12.3199238 347.07567096 12.63947668 345.1512742 12.95336914 343.22595215 C13.31316228 341.04631584 13.68896198 338.86998208 14.06933594 336.69384766 C17.00919473 319.84605705 19.47203722 303.04226929 21 286 C21.10296387 284.93507324 21.20592773 283.87014648 21.31201172 282.77294922 C24.75850516 246.23358515 24.49214677 208.52994292 21 172 C20.93683594 171.33921448 20.87367188 170.67842896 20.80859375 169.99761963 C18.62959539 147.49131704 15.17290733 125.21901109 11 103 C10.82887695 102.03723145 10.65775391 101.07446289 10.48144531 100.08251953 C10.08592639 98.03356839 9.55840129 96.0106775 9 94 C8.01 93.34 7.02 92.68 6 92 C6.67342206 99.39952909 8.011663 106.60093683 9.41149902 113.89419556 C11.74623919 126.15477972 13.74388712 138.42240508 15.25 150.8125 C15.40057861 152.02228516 15.55115723 153.23207031 15.70629883 154.47851562 C18.46654517 178.17412112 19.38034797 201.87507021 19.31805801 225.71130371 C19.31239945 227.91414463 19.30959027 230.11697778 19.30697632 232.31982422 C19.26793458 254.98044521 18.76611942 277.48450708 16 300 C15.90807373 300.75140259 15.81614746 301.50280518 15.72143555 302.27697754 C13.53070658 319.97537304 10.87278665 337.58327791 7 355 C3.65616905 355.75768832 0.63444192 356.10663906 -2.7902832 356.02172852 C-3.71086014 356.00163223 -4.63143707 355.98153595 -5.57991028 355.96083069 C-6.5602977 355.93379562 -7.54068512 355.90676056 -8.55078125 355.87890625 C-9.56472458 355.85529526 -10.57866791 355.83168427 -11.62333679 355.80735779 C-14.85320845 355.73095062 -18.08282638 355.64682756 -21.3125 355.5625 C-23.50584707 355.50925635 -25.69920643 355.45651611 -27.89257812 355.40429688 C-33.26187481 355.27536661 -38.63098392 355.14010538 -44 355 C-45.26563246 350.80462759 -44.41081136 347.57082086 -43.33984375 343.421875 C-42.95732195 341.87030859 -42.57492167 340.31871222 -42.19262695 338.76708984 C-41.9878775 337.95052917 -41.78312805 337.13396851 -41.57217407 336.29266357 C-20.70707023 252.7018225 -12.54039636 162.7654265 -35.2421875 39.4765625 C-35.96187339 36.17491073 -35.94131193 35.06577149 -35 32 C-34.22809326 32.24758057 -33.45618652 32.49516113 -32.66088867 32.75024414 C-29.17259677 33.86346174 -25.68017745 34.96312334 -22.1875 36.0625 C-20.97255859 36.45244141 -19.75761719 36.84238281 -18.50585938 37.24414062 C-16.76079102 37.79038086 -16.76079102 37.79038086 -14.98046875 38.34765625 C-13.37014771 38.85824585 -13.37014771 38.85824585 -11.72729492 39.37915039 C-8.92835636 40.26440396 -8.92835636 40.26440396 -6 39 C-5.85377197 37.96069336 -5.70754395 36.92138672 -5.55688477 35.85058594 C-5.01296633 31.98879052 -4.46625291 28.12739507 -3.91870117 24.26611328 C-3.68226279 22.59597348 -3.446579 20.92572668 -3.21166992 19.25537109 C-2.87357499 16.85225237 -2.53275395 14.44953357 -2.19140625 12.046875 C-2.03509483 10.9294693 -2.03509483 10.9294693 -1.87562561 9.78948975 C-1.40269092 6.47787556 -0.91569111 3.22146751 0 0 Z " fill="#f6f7fb" transform="translate(116,101)"/>
<path d="M0 0 C34.79272787 26.38067031 54.15351224 68.62866901 68.75 108.55078125 C69.06219482 109.37827881 69.37438965 110.20577637 69.69604492 111.05834961 C69.96650635 111.8241333 70.23696777 112.58991699 70.515625 113.37890625 C70.75571289 114.0430957 70.99580078 114.70728516 71.24316406 115.39160156 C71.58785158 117.95382243 70.88907641 119.16189986 69.5 121.30078125 C65.23891589 123.88325647 60.33945018 123.84114679 55.5 123.30078125 C53.97826172 123.14609375 53.97826172 123.14609375 52.42578125 122.98828125 C48.92101249 120.96683919 48.80526898 120.1679263 47.6640625 116.41015625 C47.12921631 114.29576588 46.61767515 112.17539375 46.125 110.05078125 C45.53929945 107.76258521 44.94670714 105.47614349 44.34765625 103.19140625 C44.04617676 102.03576172 43.74469727 100.88011719 43.43408203 99.68945312 C33.75341749 64.56984417 13.16587164 23.33885956 -19.5 4.30078125 C-29.49331109 -1.28141987 -38.83565845 -5.22418135 -50.5 -3.69921875 C-57.16360622 -1.72410669 -61.79571142 1.57964524 -65.31640625 7.59375 C-75.05984539 29.87824941 -67.92000941 57.93508292 -59.60498047 79.63671875 C-53.25807327 95.40476376 -45.00050887 110.29931169 -35.07885742 124.08837891 C-32.71224095 127.39546781 -30.80705988 130.40188104 -29.5 134.30078125 C-32.48438953 135.29557776 -34.62655586 135.49843302 -37.75 135.55078125 C-39.11898437 135.58945312 -39.11898437 135.58945312 -40.515625 135.62890625 C-45.65130604 135.06425022 -49.33708516 133.71394359 -52.66015625 129.67578125 C-53.28792969 128.56203125 -53.91570312 127.44828125 -54.5625 126.30078125 C-54.92335693 125.6655957 -55.28421387 125.03041016 -55.65600586 124.37597656 C-56.96743055 122.03293373 -58.23532831 119.66939122 -59.5 117.30078125 C-60.04140625 116.29724609 -60.5828125 115.29371094 -61.140625 114.25976562 C-98.3522962 44.98184236 -98.3522962 44.98184236 -88.46484375 10.9453125 C-85.1749396 1.92804486 -78.90670788 -5.11117375 -70.203125 -9.27734375 C-46.07560499 -18.77550774 -21.12485642 -14.35830084 0 0 Z " fill="#f6f7fb" transform="translate(265.5,13.69921875)"/>
<path d="M0 0 C20.44397748 0.49753043 36.74126406 14.57596451 50.39453125 28.4296875 C64.14464904 43.11895519 75.42550479 61.37762227 83 80 C80.8973294 80.36294314 78.79278943 80.71506972 76.6875 81.0625 C75.51574219 81.25972656 74.34398437 81.45695312 73.13671875 81.66015625 C70 82 70 82 67 81 C65.64924802 78.61896269 64.46342939 76.287767 63.3125 73.8125 C62.60052956 72.34235503 61.88562547 70.87362759 61.16796875 69.40625 C60.80622559 68.66503906 60.44448242 67.92382812 60.07177734 67.16015625 C54.80952741 56.55414545 48.49968776 47.11265043 41 38 C40.29230469 37.12601563 39.58460938 36.25203125 38.85546875 35.3515625 C27.92578179 22.49549287 14.11627427 13.07274296 -2 8 C-1.125 2.25 -1.125 2.25 0 0 Z " fill="#f6f7fb" transform="translate(203,24)"/>
<path d="M0 0 C-0.08782642 2.83467342 -0.19480902 5.66653416 -0.3125 8.5 C-0.33505859 9.29148437 -0.35761719 10.08296875 -0.38085938 10.8984375 C-0.60104148 15.782477 -1.43333417 19.67332012 -3.29077148 24.18847656 C-8.27043967 36.90762903 -4.99990824 53.92353136 -2.38891602 66.85449219 C-1.83894064 69.88850575 -1.43606677 72.94753264 -1 76 C-7.27 75.01 -13.54 74.02 -20 73 C-25.77822614 55.28010651 -30.40847657 34.54327436 -22.00390625 16.91015625 C-17.85890168 9.43767397 -9.24116291 0 0 0 Z " fill="#f6f7fb" transform="translate(172,26)"/>
<path d="M0 0 C6.40528649 -0.13645593 12.80714665 -0.18613793 19.21386719 -0.17700195 C21.39045205 -0.18395538 23.56706885 -0.2103933 25.74316406 -0.25708008 C43.66574967 -0.62192686 43.66574967 -0.62192686 48.90893555 3.02124023 C51.02228 5.89902535 52.47125668 8.77547783 54 12 C55.53224948 14.40830448 57.18729249 16.72620421 58.83203125 19.05859375 C59.66131117 20.2784919 60.48747408 21.50051466 61.31054688 22.72460938 C61.72167725 23.33457764 62.13280762 23.9445459 62.55639648 24.57299805 C63.17816772 25.49592651 63.17816772 25.49592651 63.8125 26.4375 C65.08236909 28.3201927 66.35281636 30.20248843 67.62443542 32.08399963 C68.76497375 33.77185685 69.90366307 35.46096307 71.04223633 37.15014648 C72.90119421 39.94868043 72.90119421 39.94868043 74.82299805 42.19555664 C75.40561401 43.0887561 75.40561401 43.0887561 76 44 C75.67 44.99 75.34 45.98 75 47 C73.28645833 45.95963542 71.57291667 44.91927083 69.859375 43.87890625 C68.73966309 43.19908691 67.61995117 42.51926758 66.46630859 41.81884766 C63.9587945 40.29643137 61.45131106 38.77396461 58.94384766 37.25146484 C51.87104782 32.95701542 44.79784905 28.66322573 37.72358704 24.3711853 C34.76938111 22.57866694 31.81566636 20.78534883 28.86303711 18.99023438 C23.67413145 15.835739 18.48272294 12.68586 13.27734375 9.55859375 C12.4280127 9.04603027 11.57868164 8.5334668 10.70361328 8.00537109 C9.15887056 7.07322596 7.61182029 6.14488942 6.06201172 5.22119141 C1.11287941 2.22575881 1.11287941 2.22575881 0 0 Z " fill="#f6f7fb" transform="translate(77,460)"/>
</svg>
